<svg xmlns="http://www.w3.org/2000/svg">
    <symbol width="53" height="53" viewBox="0 0 53 53" fill="none" id="logo-icon">
        <path
            d="M12.402 31.8169C12.8536 30.8947 13.3241 29.9819 13.8087 29.0691C10.4918 29.7043 7.24545 30.0854 3.77798 30.4901C3.6933 30.4995 3.60861 30.5042 3.52392 30.5042C2.43711 30.5042 1.49614 29.6902 1.3644 28.5797C1.22326 27.3846 2.07954 26.3071 3.27457 26.1659C7.94647 25.6201 12.1996 25.1214 16.7539 23.9403C18.5559 21.0231 20.5366 18.1717 22.7055 15.3768C26.7941 10.1163 30.8496 6.09331 34.877 3.29838C35.545 2.83256 36.1943 2.43262 36.8248 2.07972C33.649 0.74343 30.1627 0 26.4976 0C11.8656 0 0 11.8667 0 26.5C0 33.6049 2.79938 40.0464 7.34896 44.8034C8.11114 41.4862 9.80018 37.1574 12.402 31.8169Z"
            fill="white" />
        <path
            d="M38.3962 6.70501C36.7259 8.1307 34.7781 10.1493 32.5527 12.7513C30.3274 15.358 28.1208 18.1858 25.9377 21.2301C29.6263 19.6868 32.8256 17.7671 35.5262 15.4662C38.2268 13.1653 40.2169 10.7468 41.4919 8.21069C42.3764 6.39917 42.4423 5.31226 41.7037 4.95466C41.1673 4.69587 40.0664 5.27932 38.3962 6.70501Z"
            fill="white" />
        <path
            d="M46.3616 8.96338C46.2157 9.32568 46.0558 9.69269 45.8723 10.0738C42.8235 16.3271 36.1756 21.4417 25.9426 25.4224C25.8579 25.4694 25.7732 25.5165 25.6791 25.5541C24.4794 26.0435 23.322 26.4716 22.1928 26.8575C20.5038 29.5818 19.13 32.0285 18.0761 34.1977C16.5847 37.2561 15.1591 40.4415 13.7947 43.7635C12.6326 46.5913 12.1433 48.2946 12.3127 48.8828C12.4585 48.9769 12.6044 49.0757 12.7549 49.1651C13.6065 49.2168 14.7074 47.8711 16.053 45.1139C17.1822 42.7989 18.1184 40.4839 18.8618 38.1642C19.6052 35.8492 20.2968 33.3554 20.9366 30.6923C21.0966 30.2923 21.4589 29.8641 22.0329 29.4077C22.6021 28.9513 23.2044 28.6031 23.8395 28.3584C24.47 28.1185 24.9499 28.0761 25.2792 28.2314C25.872 28.5231 26.5683 28.8995 27.3729 29.3607C27.6269 29.5206 27.928 29.6853 28.2856 29.8594C29.4712 30.4382 30.8403 30.9793 32.3976 31.478C32.647 31.5627 32.9151 31.6568 33.1974 31.7603C33.4797 31.8592 33.7526 31.9768 34.0208 32.1085C34.8488 32.5132 34.9618 33.3413 34.3548 34.5882C33.2116 36.9314 30.798 37.2043 27.1235 35.4116C26.4131 35.0634 25.4533 34.4329 24.2488 33.5107C23.736 35.5387 23.0585 37.736 22.2211 40.0981C21.3789 42.4601 20.6073 44.3704 19.8969 45.8244C18.8148 48.0405 17.6621 49.7626 16.4341 51.0142C19.5393 52.2894 22.9409 52.9999 26.5025 52.9999C41.1392 52.9999 53.0001 41.1332 53.0001 26.4999C53.0001 19.7761 50.4877 13.6404 46.3616 8.96338Z"
            fill="white" />
    </symbol>

    <symbol width="24" height="24" viewBox="0 0 24 24" fill="none" id="header__phone">
        <path
            d="M7.18 10.27L13.684 16.73C14.381 15.923 18.794 11.192 21 17.654C21 17.654 20.768 21 16.006 21C12.639 21 9.155 16.962 6.716 14.654C4.626 12.692 3 10.154 3 7.846C3 3.116 6.252 3 6.252 3C13.684 5.538 7.181 10.27 7.181 10.27H7.18Z"
            stroke="white" stroke-width="1.5" stroke-miterlimit="10" stroke-linejoin="round" />
    </symbol>
    <symbol width="62" height="62" viewBox="0 0 62 62" fill="none" id="facebook__icon">
        <path fill-rule="evenodd" clip-rule="evenodd"
            d="M31 0C13.8792 0 0 13.8792 0 31C0 48.1208 13.8792 62 31 62C48.1208 62 62 48.1208 62 31C62 13.8792 48.1208 0 31 0ZM34.231 32.3617V49.2273H27.2528V32.3623H23.7665V26.5504H27.2528V23.0609C27.2528 18.3194 29.2214 15.5 34.8144 15.5H39.4707V21.3126H36.5602C34.383 21.3126 34.239 22.1249 34.239 23.6407L34.231 26.5497H39.5037L38.8867 32.3617H34.231Z"
            fill="#2B2A29" />
    </symbol>
    <symbol width="62" height="62" viewBox="0 0 62 62" fill="none" id="instagram__icon">
        <path fill-rule="evenodd" clip-rule="evenodd"
            d="M31 0C13.8792 0 0 13.8792 0 31C0 48.1208 13.8792 62 31 62C48.1208 62 62 48.1208 62 31C62 13.8792 48.1208 0 31 0ZM24.1842 14.5666C25.9477 14.4863 26.5113 14.4667 31.0015 14.4667H30.9963C35.4879 14.4667 36.0494 14.4863 37.8129 14.5666C39.5731 14.6472 40.7752 14.9258 41.8292 15.3347C42.9177 15.7566 43.8373 16.3215 44.757 17.2412C45.6767 18.1602 46.2416 19.0826 46.6653 20.1701C47.0717 21.2213 47.3507 22.4227 47.4334 24.1829C47.5126 25.9464 47.5333 26.51 47.5333 31.0002C47.5333 35.4904 47.5126 36.0526 47.4334 37.8161C47.3507 39.5756 47.0717 40.7773 46.6653 41.8289C46.2416 42.916 45.6767 43.8385 44.757 44.7574C43.8384 45.6771 42.9173 46.2434 41.8302 46.6657C40.7783 47.0745 39.5755 47.3532 37.8154 47.4338C36.0518 47.5141 35.49 47.5337 30.9994 47.5337C26.5095 47.5337 25.9464 47.5141 24.1828 47.4338C22.423 47.3532 21.2212 47.0745 20.1693 46.6657C19.0826 46.2434 18.1601 45.6771 17.2415 44.7574C16.3221 43.8385 15.7572 42.916 15.3346 41.8286C14.9261 40.7773 14.6474 39.5759 14.5665 37.8158C14.4866 36.0522 14.4666 35.4904 14.4666 31.0002C14.4666 26.51 14.4873 25.9461 14.5661 24.1825C14.6454 22.4231 14.9244 21.2213 15.3343 20.1697C15.7579 19.0826 16.3228 18.1602 17.2425 17.2412C18.1615 16.3219 19.0839 15.757 20.1714 15.3347C21.2226 14.9258 22.424 14.6472 24.1842 14.5666Z"
            fill="#2B2A29" />
        <path fill-rule="evenodd" clip-rule="evenodd"
            d="M29.5183 17.4462C29.8063 17.4457 30.1162 17.4458 30.4505 17.446L31.0015 17.4462C35.416 17.4462 35.9392 17.462 37.6825 17.5412C39.2945 17.6149 40.1694 17.8843 40.7522 18.1106C41.5237 18.4103 42.0738 18.7685 42.6521 19.3472C43.2308 19.9258 43.589 20.4769 43.8894 21.2485C44.1157 21.8306 44.3854 22.7055 44.4588 24.3175C44.538 26.0605 44.5552 26.584 44.5552 30.9964C44.5552 35.4088 44.538 35.9323 44.4588 37.6752C44.3851 39.2873 44.1157 40.1622 43.8894 40.7443C43.5897 41.5158 43.2308 42.0652 42.6521 42.6436C42.0735 43.2222 41.5241 43.5805 40.7522 43.8801C40.1701 44.1075 39.2945 44.3761 37.6825 44.4498C35.9395 44.5291 35.416 44.5463 31.0015 44.5463C26.5867 44.5463 26.0635 44.5291 24.3206 44.4498C22.7086 44.3754 21.8337 44.1061 21.2506 43.8798C20.479 43.5801 19.9279 43.2219 19.3492 42.6432C18.7705 42.0645 18.4123 41.5148 18.112 40.7429C17.8856 40.1608 17.6159 39.2859 17.5426 37.6739C17.4634 35.931 17.4475 35.4074 17.4475 30.9923C17.4475 26.5771 17.4634 26.0563 17.5426 24.3134C17.6163 22.7014 17.8856 21.8265 18.112 21.2437C18.4116 20.4721 18.7705 19.921 19.3492 19.3423C19.9279 18.7637 20.479 18.4054 21.2506 18.1051C21.8334 17.8777 22.7086 17.6091 24.3206 17.535C25.8458 17.4661 26.4369 17.4455 29.5183 17.442V17.4462ZM39.8271 20.1914C38.7317 20.1914 37.8431 21.0791 37.8431 22.1747C37.8431 23.2701 38.7317 24.1588 39.8271 24.1588C40.9224 24.1588 41.8111 23.2701 41.8111 22.1747C41.8111 21.0794 40.9224 20.1907 39.8271 20.1907V20.1914ZM22.5108 31.0001C22.5108 26.3112 26.3125 22.5095 31.0015 22.5095H31.0011C35.6901 22.5095 39.4907 26.3112 39.4907 31.0001C39.4907 35.6891 35.6904 39.489 31.0015 39.489C26.3125 39.489 22.5108 35.6891 22.5108 31.0001Z"
            fill="#2B2A29" />
        <path
            d="M31.0014 25.489C34.0449 25.489 36.5126 27.9562 36.5126 31.0001C36.5126 34.0437 34.0449 36.5113 31.0014 36.5113C27.9575 36.5113 25.4902 34.0437 25.4902 31.0001C25.4902 27.9562 27.9575 25.489 31.0014 25.489Z"
            fill="#2B2A29" />
    </symbol>

    <symbol width="62" height="62" viewBox="0 0 62 62" fill="none" id="youtube__icon">
        <path fill-rule="evenodd" clip-rule="evenodd"
            d="M31 0C13.8792 0 0 13.8792 0 31C0 48.1208 13.8792 62 31 62C48.1208 62 62 48.1208 62 31C62 13.8792 48.1208 0 31 0ZM43.9187 20.3429C45.3415 20.7333 46.462 21.8837 46.8423 23.3446C47.5333 25.9923 47.5333 31.5167 47.5333 31.5167C47.5333 31.5167 47.5333 37.0409 46.8423 39.6888C46.462 41.1497 45.3415 42.3 43.9187 42.6907C41.3402 43.4 30.9999 43.4 30.9999 43.4C30.9999 43.4 20.6597 43.4 18.081 42.6907C16.6582 42.3 15.5377 41.1497 15.1574 39.6888C14.4666 37.0409 14.4666 31.5167 14.4666 31.5167C14.4666 31.5167 14.4666 25.9923 15.1574 23.3446C15.5377 21.8837 16.6582 20.7333 18.081 20.3429C20.6597 19.6333 30.9999 19.6333 30.9999 19.6333C30.9999 19.6333 41.3402 19.6333 43.9187 20.3429Z"
            fill="#2B2A29" />
        <path d="M27.9001 37.2V26.8666L36.1668 32.0335L27.9001 37.2Z" fill="#2B2A29" />
    </symbol>

    <symbol width="62" height="62" viewBox="0 0 62 62" fill="none" id="whatsapp__icon">
        <path fill-rule="evenodd" clip-rule="evenodd"
            d="M0 31C0 48.1208 13.8792 62 31 62C48.1208 62 62 48.1208 62 31C62 13.8792 48.1208 0 31 0C13.8792 0 0 13.8792 0 31ZM50.4551 29.8136C50.4511 39.9748 42.185 48.2428 32.0217 48.247H32.0141C28.9289 48.2459 25.8975 47.4719 23.2051 46.0033L13.4332 48.5666L16.0483 39.0146C14.4352 36.219 13.5864 33.0479 13.5878 29.799C13.5918 19.6355 21.8611 11.3667 32.0215 11.3667C36.9527 11.3688 41.581 13.2885 45.0612 16.7728C48.5415 20.257 50.4571 24.8882 50.4551 29.8136Z"
            fill="#2B2A29" />
        <path fill-rule="evenodd" clip-rule="evenodd"
            d="M17.8592 44.1873L23.658 42.6662L24.2175 42.9982C26.5698 44.3942 29.2663 45.1328 32.0156 45.1339H32.0218C40.4664 45.1339 47.3395 38.2607 47.3429 29.8126C47.3445 25.7187 45.7523 21.8693 42.8597 18.9733C39.967 16.0773 36.1201 14.4816 32.0278 14.4802C23.5767 14.4802 16.7035 21.3527 16.7002 29.8001C16.699 32.6952 17.509 35.5145 19.0427 37.9539L19.407 38.5336L17.8592 44.1873ZM40.6777 33.7823C40.999 33.9376 41.2159 34.0424 41.3085 34.197C41.4237 34.3891 41.4237 35.3113 41.04 36.3873C40.6561 37.4632 38.816 38.4451 37.931 38.5773C37.1375 38.696 36.1333 38.7454 35.03 38.3948C34.361 38.1826 33.5031 37.8992 32.4042 37.4246C28.0863 35.5601 25.1682 31.3751 24.6167 30.5841C24.5781 30.5287 24.551 30.4899 24.536 30.4698L24.5323 30.4648C24.2885 30.1396 22.6553 27.9605 22.6553 25.7051C22.6553 23.5835 23.6974 22.4715 24.1771 21.9596C24.21 21.9246 24.2402 21.8923 24.2673 21.8627C24.6895 21.4016 25.1885 21.2863 25.4955 21.2863C25.8026 21.2863 26.1099 21.2892 26.3783 21.3026C26.4114 21.3043 26.4459 21.3041 26.4815 21.3039C26.7499 21.3023 27.0845 21.3004 27.4146 22.0933C27.5416 22.3984 27.7274 22.8508 27.9234 23.328C28.3197 24.2929 28.7577 25.359 28.8347 25.5132C28.9499 25.7438 29.0266 26.0127 28.8731 26.3202C28.85 26.3663 28.8287 26.4098 28.8084 26.4514C28.6931 26.6868 28.6082 26.86 28.4125 27.0885C28.3356 27.1784 28.256 27.2752 28.1765 27.3721C28.018 27.5651 27.8596 27.758 27.7216 27.8955C27.491 28.1252 27.251 28.3743 27.5197 28.8355C27.7884 29.2966 28.7127 30.8048 30.082 32.0262C31.5539 33.3391 32.8331 33.8939 33.4816 34.1752C33.6082 34.2301 33.7108 34.2746 33.786 34.3123C34.2464 34.5429 34.5151 34.5043 34.7838 34.197C35.0525 33.8896 35.9352 32.852 36.2422 32.391C36.5492 31.9301 36.8564 32.0068 37.2785 32.1605C37.7008 32.3143 39.9653 33.4285 40.4258 33.659C40.5158 33.704 40.5998 33.7446 40.6777 33.7823Z"
            fill="#2B2A29" />
    </symbol>

    <symbol width="62" height="62" viewBox="0 0 62 62" fill="none" id="footer__facebook">
        <path fill-rule="evenodd" clip-rule="evenodd"
            d="M31 0C13.8792 0 0 13.8792 0 31C0 48.1208 13.8792 62 31 62C48.1208 62 62 48.1208 62 31C62 13.8792 48.1208 0 31 0ZM34.231 32.3617V49.2273H27.2528V32.3623H23.7665V26.5504H27.2528V23.0609C27.2528 18.3194 29.2214 15.5 34.8144 15.5H39.4707V21.3126H36.5602C34.383 21.3126 34.239 22.1249 34.239 23.6407L34.231 26.5497H39.5037L38.8867 32.3617H34.231Z"
            fill="white" />
    </symbol>
    <symbol width="62" height="62" viewBox="0 0 62 62" fill="none" id="footer__instagram">
        <path fill-rule="evenodd" clip-rule="evenodd"
            d="M31 0C13.8792 0 0 13.8792 0 31C0 48.1208 13.8792 62 31 62C48.1208 62 62 48.1208 62 31C62 13.8792 48.1208 0 31 0ZM24.1842 14.5668C25.9477 14.4866 26.5113 14.4669 31.0015 14.4669H30.9963C35.4879 14.4669 36.0494 14.4866 37.8129 14.5668C39.5731 14.6474 40.7752 14.9261 41.8292 15.3349C42.9177 15.7569 43.8373 16.3218 44.757 17.2414C45.6767 18.1604 46.2416 19.0829 46.6653 20.1703C47.0717 21.2215 47.3507 22.423 47.4334 24.1831C47.5126 25.9467 47.5333 26.5102 47.5333 31.0004C47.5333 35.4907 47.5126 36.0528 47.4334 37.8164C47.3507 39.5758 47.0717 40.7776 46.6653 41.8292C46.2416 42.9163 45.6767 43.8387 44.757 44.7577C43.8384 45.6774 42.9173 46.2436 41.8302 46.6659C40.7783 47.0748 39.5755 47.3534 37.8154 47.434C36.0518 47.5143 35.49 47.5339 30.9994 47.5339C26.5095 47.5339 25.9464 47.5143 24.1828 47.434C22.423 47.3534 21.2212 47.0748 20.1693 46.6659C19.0826 46.2436 18.1601 45.6774 17.2415 44.7577C16.3221 43.8387 15.7572 42.9163 15.3346 41.8288C14.9261 40.7776 14.6474 39.5761 14.5665 37.816C14.4866 36.0524 14.4666 35.4907 14.4666 31.0004C14.4666 26.5102 14.4873 25.9463 14.5661 24.1828C14.6454 22.4233 14.9244 21.2215 15.3343 20.1699C15.7579 19.0829 16.3228 18.1604 17.2425 17.2414C18.1615 16.3221 19.0839 15.7572 20.1714 15.3349C21.2226 14.9261 22.424 14.6474 24.1842 14.5668Z"
            fill="white" />
        <path fill-rule="evenodd" clip-rule="evenodd"
            d="M29.5183 17.446C29.8063 17.4456 30.1162 17.4457 30.4505 17.4459L31.0015 17.446C35.416 17.446 35.9392 17.4619 37.6825 17.5411C39.2945 17.6148 40.1694 17.8842 40.7522 18.1105C41.5237 18.4101 42.0738 18.7684 42.6521 19.347C43.2308 19.9257 43.589 20.4768 43.8894 21.2484C44.1157 21.8305 44.3854 22.7054 44.4588 24.3174C44.538 26.0603 44.5552 26.5839 44.5552 30.9963C44.5552 35.4086 44.538 35.9322 44.4588 37.6751C44.3851 39.2871 44.1157 40.162 43.8894 40.7441C43.5897 41.5157 43.2308 42.0651 42.6521 42.6434C42.0735 43.2221 41.5241 43.5803 40.7522 43.88C40.1701 44.1073 39.2945 44.376 37.6825 44.4497C35.9395 44.5289 35.416 44.5462 31.0015 44.5462C26.5867 44.5462 26.0635 44.5289 24.3206 44.4497C22.7086 44.3753 21.8337 44.106 21.2506 43.8797C20.479 43.58 19.9279 43.2218 19.3492 42.6431C18.7705 42.0644 18.4123 41.5147 18.112 40.7428C17.8856 40.1607 17.6159 39.2858 17.5426 37.6737C17.4634 35.9308 17.4475 35.4073 17.4475 30.9921C17.4475 26.577 17.4634 26.0562 17.5426 24.3133C17.6163 22.7013 17.8856 21.8264 18.112 21.2436C18.4116 20.472 18.7705 19.9209 19.3492 19.3422C19.9279 18.7635 20.479 18.4053 21.2506 18.105C21.8334 17.8776 22.7086 17.609 24.3206 17.5349C25.8458 17.466 26.4369 17.4453 29.5183 17.4419V17.446ZM39.8271 20.1912C38.7317 20.1912 37.8431 21.0788 37.8431 22.1745C37.8431 23.2699 38.7317 24.1585 39.8271 24.1585C40.9224 24.1585 41.8111 23.2699 41.8111 22.1745C41.8111 21.0792 40.9224 20.1905 39.8271 20.1905V20.1912ZM22.5108 31.0002C22.5108 26.3112 26.3125 22.5096 31.0015 22.5096H31.0011C35.6901 22.5096 39.4907 26.3112 39.4907 31.0002C39.4907 35.6892 35.6904 39.4891 31.0015 39.4891C26.3125 39.4891 22.5108 35.6892 22.5108 31.0002Z"
            fill="white" />
        <path
            d="M31.0014 25.4888C34.0449 25.4888 36.5126 27.9561 36.5126 30.9999C36.5126 34.0435 34.0449 36.5111 31.0014 36.5111C27.9575 36.5111 25.4902 34.0435 25.4902 30.9999C25.4902 27.9561 27.9575 25.4888 31.0014 25.4888Z"
            fill="white" />
    </symbol>
    <symbol width="62" height="62" viewBox="0 0 62 62" fill="none" id="footer__youtube">
        <path fill-rule="evenodd" clip-rule="evenodd"
            d="M31 0C13.8792 0 0 13.8792 0 31C0 48.1208 13.8792 62 31 62C48.1208 62 62 48.1208 62 31C62 13.8792 48.1208 0 31 0ZM43.919 20.3431C45.3418 20.7336 46.4623 21.8839 46.8426 23.3448C47.5336 25.9925 47.5336 31.5169 47.5336 31.5169C47.5336 31.5169 47.5336 37.0411 46.8426 39.689C46.4623 41.1499 45.3418 42.3003 43.919 42.6909C41.3405 43.4002 31.0003 43.4002 31.0003 43.4002C31.0003 43.4002 20.66 43.4002 18.0813 42.6909C16.6585 42.3003 15.538 41.1499 15.1577 39.689C14.4669 37.0411 14.4669 31.5169 14.4669 31.5169C14.4669 31.5169 14.4669 25.9925 15.1577 23.3448C15.538 21.8839 16.6585 20.7336 18.0813 20.3431C20.66 19.6336 31.0003 19.6336 31.0003 19.6336C31.0003 19.6336 41.3405 19.6336 43.919 20.3431Z"
            fill="white" />
        <path d="M27.8999 37.1995V26.8662L36.1666 32.0331L27.8999 37.1995Z" fill="white" />
    </symbol>
    <symbol width="62" height="62" viewBox="0 0 62 62" fill="none" id="footer__whatsapp">
        <path fill-rule="evenodd" clip-rule="evenodd"
            d="M0 31C0 48.1208 13.8792 62 31 62C48.1208 62 62 48.1208 62 31C62 13.8792 48.1208 0 31 0C13.8792 0 0 13.8792 0 31ZM50.4551 29.8134C50.4511 39.9746 42.185 48.2426 32.0217 48.2467H32.0141C28.9289 48.2457 25.8975 47.4716 23.2051 46.003L13.4332 48.5664L16.0483 39.0143C14.4352 36.2188 13.5864 33.0477 13.5878 29.7988C13.5918 19.6353 21.8611 11.3664 32.0215 11.3664C36.9527 11.3685 41.581 13.2882 45.0612 16.7726C48.5415 20.2567 50.4571 24.888 50.4551 29.8134Z"
            fill="white" />
        <path fill-rule="evenodd" clip-rule="evenodd"
            d="M17.8592 44.1872L23.658 42.666L24.2175 42.9981C26.5698 44.394 29.2663 45.1326 32.0156 45.1337H32.0218C40.4664 45.1337 47.3395 38.2605 47.3429 29.8124C47.3445 25.7185 45.7523 21.8692 42.8597 18.9731C39.967 16.0771 36.1201 14.4814 32.0278 14.48C23.5767 14.48 16.7035 21.3525 16.7002 29.8C16.699 32.695 17.509 35.5144 19.0427 37.9537L19.407 38.5334L17.8592 44.1872ZM40.6778 33.7826C40.999 33.9379 41.2159 34.0427 41.3085 34.1973C41.4237 34.3894 41.4237 35.3116 41.04 36.3876C40.6561 37.4635 38.816 38.4454 37.931 38.5776C37.1375 38.6963 36.1333 38.7458 35.03 38.3951C34.361 38.1829 33.5031 37.8995 32.4042 37.4249C28.0863 35.5604 25.1682 31.3754 24.6167 30.5844C24.5781 30.529 24.551 30.4902 24.536 30.4701L24.5323 30.4652C24.2885 30.1399 22.6553 27.9608 22.6553 25.7055C22.6553 23.5839 23.6974 22.4718 24.1771 21.9599C24.21 21.9249 24.2402 21.8926 24.2673 21.863C24.6895 21.4019 25.1885 21.2866 25.4955 21.2866C25.8026 21.2866 26.1099 21.2895 26.3783 21.303C26.4114 21.3046 26.4459 21.3044 26.4815 21.3042C26.7499 21.3026 27.0845 21.3007 27.4146 22.0936C27.5416 22.3988 27.7274 22.8511 27.9234 23.3283C28.3197 24.2932 28.7577 25.3593 28.8347 25.5136C28.9499 25.7441 29.0266 26.013 28.8731 26.3205C28.85 26.3666 28.8287 26.4102 28.8084 26.4517C28.6931 26.6871 28.6082 26.8603 28.4125 27.0888C28.3356 27.1787 28.256 27.2756 28.1765 27.3724C28.018 27.5654 27.8596 27.7584 27.7216 27.8958C27.491 28.1255 27.251 28.3747 27.5197 28.8358C27.7884 29.2969 28.7127 30.8051 30.082 32.0265C31.5539 33.3394 32.8331 33.8943 33.4816 34.1755C33.6082 34.2304 33.7108 34.2749 33.786 34.3126C34.2464 34.5432 34.5151 34.5046 34.7838 34.1973C35.0525 33.8899 35.9352 32.8524 36.2422 32.3913C36.5492 31.9304 36.8564 32.0072 37.2785 32.1608C37.7008 32.3147 39.9653 33.4288 40.4258 33.6593C40.5158 33.7043 40.5998 33.745 40.6778 33.7826Z"
            fill="white" />
    </symbol>


</svg>